<svg xmlns="http://www.w3.org/2000/svg" width="1180" height="860" viewBox="0 0 1180 860" font-family="Helvetica,Arial,sans-serif">
<rect width="1180" height="860" fill="#ffffff"/>
<text x="40" y="48" font-size="26" font-weight="700" fill="#1f2933">Ontologie des référentiels horticoles alignée sur CCCEV</text>
<text x="40" y="76" font-size="15" fill="#52606d">Floriscore (Kosmio) · extension de CCCEV 2.2.0 · 5 référentiels · 51 critères communs · 230 critères</text>
<marker id="a5b7fa6" markerWidth="10" markerHeight="10" refX="8" refY="3" orient="auto"><path d="M0,0 L8,3 L0,6 Z" fill="#5b7fa6"/></marker>
<marker id="a4c9a5e" markerWidth="10" markerHeight="10" refX="8" refY="3" orient="auto"><path d="M0,0 L8,3 L0,6 Z" fill="#4c9a5e"/></marker>
<marker id="ae07b39" markerWidth="10" markerHeight="10" refX="8" refY="3" orient="auto"><path d="M0,0 L8,3 L0,6 Z" fill="#e07b39"/></marker>
<marker id="a1f2933" markerWidth="10" markerHeight="10" refX="8" refY="3" orient="auto"><path d="M0,0 L8,3 L0,6 Z" fill="#1f2933"/></marker>
<text x="40" y="120" font-size="13" font-weight="700" fill="#5b7fa6">SOCLE STANDARD — CCCEV (SEMIC / UE)</text>
<rect x="40" y="135" width="200" height="58" rx="10" fill="#e8eef5" stroke="#5b7fa6" stroke-width="2"/>
<text x="140.0" y="164.0" font-size="15" font-weight="600" text-anchor="middle" fill="#1f2933">cccev:ReferenceFramework</text>
<rect x="300" y="135" width="200" height="58" rx="10" fill="#e8eef5" stroke="#5b7fa6" stroke-width="2"/>
<text x="400.0" y="158.0" font-size="15" font-weight="600" text-anchor="middle" fill="#1f2933">cccev:Criterion</text>
<text x="400.0" y="178.0" font-size="11.5" text-anchor="middle" fill="#52606d">⊂ cccev:Requirement</text>
<rect x="560" y="135" width="200" height="58" rx="10" fill="#e8eef5" stroke="#5b7fa6" stroke-width="2"/>
<text x="660.0" y="164.0" font-size="15" font-weight="600" text-anchor="middle" fill="#1f2933">cccev:Evidence</text>
<rect x="820" y="135" width="200" height="58" rx="10" fill="#e8eef5" stroke="#5b7fa6" stroke-width="2"/>
<text x="920.0" y="164.0" font-size="15" font-weight="600" text-anchor="middle" fill="#1f2933">cccev:EvidenceType</text>
<text x="40" y="245" font-size="13" font-weight="700" fill="#4c9a5e">EXTENSION FLORISCORE (flo:)</text>
<rect x="40" y="260" width="200" height="60" rx="10" fill="#e4f0e6" stroke="#4c9a5e" stroke-width="2"/>
<text x="140.0" y="284.0" font-size="15" font-weight="600" text-anchor="middle" fill="#1f2933">flo:Referentiel</text>
<text x="140.0" y="304.0" font-size="11.5" text-anchor="middle" fill="#52606d">le label, conservé global</text>
<rect x="300" y="260" width="210" height="60" rx="10" fill="#e4f0e6" stroke="#4c9a5e" stroke-width="2"/>
<text x="405.0" y="284.0" font-size="15" font-weight="600" text-anchor="middle" fill="#1f2933">flo:CritereReferentiel</text>
<text x="405.0" y="304.0" font-size="11.5" text-anchor="middle" fill="#52606d">critère propre au label</text>
<rect x="300" y="360" width="210" height="60" rx="10" fill="#e4f0e6" stroke="#4c9a5e" stroke-width="2"/>
<text x="405.0" y="384.0" font-size="15" font-weight="600" text-anchor="middle" fill="#1f2933">flo:CritereCommun</text>
<text x="405.0" y="404.0" font-size="11.5" text-anchor="middle" fill="#52606d">cluster de rapprochement</text>
<rect x="560" y="260" width="200" height="60" rx="10" fill="#e4f0e6" stroke="#4c9a5e" stroke-width="2"/>
<text x="660.0" y="290.0" font-size="15" font-weight="600" text-anchor="middle" fill="#1f2933">flo:Preuve</text>
<rect x="820" y="260" width="200" height="60" rx="10" fill="#e4f0e6" stroke="#4c9a5e" stroke-width="2"/>
<text x="920.0" y="290.0" font-size="15" font-weight="600" text-anchor="middle" fill="#1f2933">flo:TypePreuve</text>
<rect x="40" y="360" width="200" height="60" rx="10" fill="#fff7ef" stroke="#e07b39" stroke-width="2"/>
<text x="140.0" y="384.0" font-size="15" font-weight="600" text-anchor="middle" fill="#1f2933">flo:Theme</text>
<text x="140.0" y="404.0" font-size="11.5" text-anchor="middle" fill="#52606d">+ flo:NiveauExigence</text>
<line x1="140" y1="260" x2="140" y2="195" stroke="#4c9a5e" stroke-width="2.2" stroke-dasharray="4,4" marker-end="url(#a4c9a5e)"/>
<line x1="405" y1="260" x2="405" y2="195" stroke="#4c9a5e" stroke-width="2.2" stroke-dasharray="4,4" marker-end="url(#a4c9a5e)"/>
<line x1="660" y1="260" x2="660" y2="195" stroke="#4c9a5e" stroke-width="2.2" stroke-dasharray="4,4" marker-end="url(#a4c9a5e)"/>
<line x1="920" y1="260" x2="920" y2="195" stroke="#4c9a5e" stroke-width="2.2" stroke-dasharray="4,4" marker-end="url(#a4c9a5e)"/>
<text x="150" y="232" font-size="11" fill="#4c9a5e">rdfs:subClassOf ▲</text>
<line x1="240" y1="290" x2="300" y2="290" stroke="#1f2933" stroke-width="2.2" marker-end="url(#a1f2933)"/>
<text x="243" y="283" font-size="11" fill="#1f2933" font-weight="600">définitCritère</text>
<line x1="405" y1="320" x2="405" y2="360" stroke="#e07b39" stroke-width="2.2" marker-end="url(#ae07b39)"/>
<text x="412" y="345" font-size="11" fill="#e07b39" font-weight="600">aligneSur</text>
<line x1="510" y1="390" x2="240" y2="390" stroke="#1f2933" stroke-width="2.2" marker-end="url(#a1f2933)"/>
<text x="300" y="383" font-size="11" fill="#1f2933" font-weight="600">aPourTheme</text>
<line x1="510" y1="290" x2="560" y2="290" stroke="#1f2933" stroke-width="2.2" marker-end="url(#a1f2933)"/>
<line x1="660" y1="320" x2="660" y2="320" stroke="#1f2933" stroke-width="2.2" marker-end="url(#a1f2933)"/>
<line x1="760" y1="290" x2="820" y2="290" stroke="#1f2933" stroke-width="2.2" marker-end="url(#a1f2933)"/>
<text x="648" y="345" font-size="11" fill="#1f2933" font-weight="600">exigeTypePreuve</text>
<rect x="560" y="360" width="460" height="60" rx="10" fill="#fff7ef" stroke="#e07b39" stroke-width="2"/>
<text x="790.0" y="384.0" font-size="13" font-weight="600" text-anchor="middle" fill="#1f2933">RAPPROCHEMENT (degrés SKOS)</text>
<text x="790.0" y="404.0" font-size="11.5" text-anchor="middle" fill="#52606d">equivautA · rapprocheDe · plusLargeQue · plusStrictQue</text>
<text x="40" y="470" font-size="14" font-weight="700" fill="#1f2933">Répartition des 225 critères Florverde par thème commun</text>
<text x="195" y="500" font-size="12" text-anchor="end" fill="#1f2933">Phytosanitaire</text>
<rect x="205" y="488" width="550" height="16" rx="3" fill="#4c9a5e" opacity="0.85"/>
<text x="762" y="500" font-size="11.5" fill="#52606d">35</text>
<text x="195" y="526" font-size="12" text-anchor="end" fill="#1f2933">Santé-sécurité</text>
<rect x="205" y="514" width="519" height="16" rx="3" fill="#4c9a5e" opacity="0.85"/>
<text x="731" y="526" font-size="11.5" fill="#52606d">33</text>
<text x="195" y="552" font-size="12" text-anchor="end" fill="#1f2933">Droit du travail</text>
<rect x="205" y="540" width="361" height="16" rx="3" fill="#4c9a5e" opacity="0.85"/>
<text x="573" y="552" font-size="11.5" fill="#52606d">23</text>
<text x="195" y="578" font-size="12" text-anchor="end" fill="#1f2933">Sols &amp; fertilisation</text>
<rect x="205" y="566" width="346" height="16" rx="3" fill="#4c9a5e" opacity="0.85"/>
<text x="558" y="578" font-size="11.5" fill="#52606d">22</text>
<text x="195" y="604" font-size="12" text-anchor="end" fill="#1f2933">Biodiversité</text>
<rect x="205" y="592" width="283" height="16" rx="3" fill="#4c9a5e" opacity="0.85"/>
<text x="495" y="604" font-size="11.5" fill="#52606d">18</text>
<text x="195" y="630" font-size="12" text-anchor="end" fill="#1f2933">Déchets</text>
<rect x="205" y="618" width="267" height="16" rx="3" fill="#4c9a5e" opacity="0.85"/>
<text x="479" y="630" font-size="11.5" fill="#52606d">17</text>
<text x="195" y="656" font-size="12" text-anchor="end" fill="#1f2933">Gouvernance</text>
<rect x="205" y="644" width="236" height="16" rx="3" fill="#4c9a5e" opacity="0.85"/>
<text x="448" y="656" font-size="11.5" fill="#52606d">15</text>
<text x="195" y="682" font-size="12" text-anchor="end" fill="#1f2933">Eau</text>
<rect x="205" y="670" width="236" height="16" rx="3" fill="#4c9a5e" opacity="0.85"/>
<text x="448" y="682" font-size="11.5" fill="#52606d">15</text>
<text x="195" y="708" font-size="12" text-anchor="end" fill="#1f2933">Qualité post-récolte</text>
<rect x="205" y="696" width="236" height="16" rx="3" fill="#4c9a5e" opacity="0.85"/>
<text x="448" y="708" font-size="11.5" fill="#52606d">15</text>
<text x="195" y="734" font-size="12" text-anchor="end" fill="#1f2933">Matériel végétal</text>
<rect x="205" y="722" width="189" height="16" rx="3" fill="#4c9a5e" opacity="0.85"/>
<text x="401" y="734" font-size="11.5" fill="#52606d">12</text>
<text x="195" y="760" font-size="12" text-anchor="end" fill="#1f2933">Énergie &amp; carbone</text>
<rect x="205" y="748" width="141" height="16" rx="3" fill="#4c9a5e" opacity="0.85"/>
<text x="353" y="760" font-size="11.5" fill="#52606d">9</text>
<text x="195" y="786" font-size="12" text-anchor="end" fill="#1f2933">Formation/bien-être</text>
<rect x="205" y="774" width="110" height="16" rx="3" fill="#4c9a5e" opacity="0.85"/>
<text x="322" y="786" font-size="11.5" fill="#52606d">7</text>
<text x="195" y="812" font-size="12" text-anchor="end" fill="#1f2933">Traçabilité</text>
<rect x="205" y="800" width="63" height="16" rx="3" fill="#4c9a5e" opacity="0.85"/>
<text x="275" y="812" font-size="11.5" fill="#52606d">4</text>
<rect x="830" y="486" width="310" height="150" rx="10" fill="#f5f7fa" stroke="#9aa5b1" stroke-width="2"/>
<text x="985.0" y="561.0" font-size="15" font-weight="600" text-anchor="middle" fill="#1f2933"></text>
<text x="846" y="512" font-size="13" font-weight="700" fill="#1f2933">Exemple de rapprochement</text>
<text x="846" y="536" font-size="12" fill="#52606d">Critère commun :</text>
<text x="846" y="554" font-size="12.5" font-weight="600" fill="#e07b39">Interdiction du travail des enfants</text>
<text x="858" y="578" font-size="12" fill="#1f2933">• Florverde (niv. 1)  →  equivautA</text>
<text x="858" y="596" font-size="12" fill="#1f2933">• Rainforest Alliance  →  equivautA</text>
<text x="858" y="614" font-size="12" fill="#1f2933">• Fairtrade  →  equivautA</text>
<text x="858" y="632" font-size="12" fill="#1f2933">• FlorEcuador  →  equivautA</text>
<text x="40" y="842" font-size="11" fill="#9aa5b1">Source : checklist Florverde FSF V7.1.3 · CCCEV 2.2.0 (semiceu.github.io/CCCEV)</text>
</svg>